<svg xmlns="http://www.w3.org/2000/svg" width="1713.48" height="1636.475" viewBox="0 0 1713.48 1636.475"><path fill="#FFF" d="M1233.579 453.81c.24.385.475.771.713 1.156L1603.698 85.56c3.905-3.905 3.905-10.236 0-14.143-3.906-3.904-10.237-3.904-14.143 0l-366.676 366.676c3.879 5.079 7.405 10.427 10.7 15.717zm-780.733 754.317l-377.57 377.57c-3.905 3.905-3.905 10.237 0 14.142a9.969 9.969 0 0 0 7.07 2.93 9.968 9.968 0 0 0 7.072-2.93l378.529-378.529c-5.434-4.028-10.519-8.393-15.101-13.183zm1150.852 377.571l-461.592-461.592c-.23 8.645-1.148 17.205-2.588 25.696l450.037 450.037a9.972 9.972 0 0 0 7.07 2.929 9.971 9.971 0 0 0 7.072-2.929c3.906-3.904 3.906-10.236.001-14.141zM525.458 535.741a131.64 131.64 0 0 1 8.019-20.266L89.418 71.417c-3.905-3.904-10.236-3.904-14.143 0-3.905 3.906-3.905 10.237 0 14.143l450.183 450.181zm-60.886-310.728l-10.58-18.648 5.427-3.079-35.056-61.788-5.427 3.079-11.211-19.761 41.051-23.292c12.061-6.842 22.207-9.655 30.44-8.439 8.231 1.216 15.19 6.834 20.876 16.854 2.948 5.197 4.295 9.951 4.044 14.262-.252 4.313-1.769 8.669-4.546 13.064 12.413-1.032 21.621 3.737 27.621 14.314 5.738 10.112 6.982 19.064 3.738 26.853-3.246 7.791-10.946 15.132-23.098 22.027l-43.279 24.554zm-15.439-97.57l11.765 20.735 9.324-5.29c4.358-2.474 7.093-5.22 8.2-8.24 1.108-3.019.742-6.152-1.101-9.4-2.053-3.618-4.575-5.683-7.563-6.195-2.988-.512-6.756.522-11.301 3.101l-9.324 5.289zm21.477 37.853l13.58 23.936 10.715-6.079c4.822-2.736 7.654-5.69 8.492-8.865.837-3.171.148-6.707-2.062-10.604-2.104-3.71-4.83-6.026-8.175-6.951-3.346-.922-7.476.01-12.393 2.8l-10.157 5.763zm92.984-116.435l61.074-18.585 6.243 20.512-4.286 1.304 37.737 64.111 4.898-1.491 6.241 20.512-39.492 12.018-6.241-20.512 6.583-2.003-8.027-14.282-26.786 8.151 1.137 16.378 6.582-2.003 6.242 20.512-35.207 10.713-6.241-20.512 4.898-1.49-4.521-74.219-4.592 1.397-6.242-20.511zm33.182 12.314l3.074 37.029 18.367-5.59-18.074-32.464-3.367 1.025zm170.742 61.304l-2.168-21.33 4.934-.502-13.361-22.283-8.914.906 2.379 23.4 4.775-.486 2.168 21.33-39.317 3.997-2.168-21.33 6.208-.631-7.314-71.949-6.208.631-2.168-21.33 47.913-4.871c13.371-1.358 23.658.169 30.861 4.583s11.426 12.725 12.666 24.927c.756 7.429-.214 13.719-2.906 18.87-2.693 5.154-6.574 9.167-11.643 12.039l19.98 28.848 6.208-.631 2.168 21.33-44.093 4.482zm-24.445-91.758l2.848 28.016 10.824-1.1c5.305-.54 9.004-2.122 11.097-4.747 2.091-2.625 2.923-6.06 2.491-10.305-.441-4.351-1.939-7.736-4.49-10.158-2.553-2.419-6.374-3.372-11.468-2.854l-11.302 1.148zm114.988 86.924l1.376-21.396 6.228.401 4.562-70.894-6.227-.402 1.458-22.673 47.104 3.032c13.836.889 23.865 4.1 30.082 9.631 6.219 5.53 8.959 14.044 8.217 25.54-.383 5.963-1.863 10.677-4.438 14.145-2.574 3.469-6.23 6.28-10.963 8.433 10.945 5.943 16.031 14.98 15.25 27.115-.746 11.604-4.613 19.772-11.598 24.506-6.984 4.736-17.451 6.653-31.395 5.756l-49.656-3.194zm37.792-46.63l-1.769 27.463 12.296.791c5.532.356 9.521-.562 11.962-2.757 2.438-2.193 3.803-5.527 4.09-9.998.273-4.257-.736-7.688-3.024-10.296-2.293-2.605-6.258-4.09-11.899-4.453l-11.656-.75zm2.794-43.431l-1.531 23.791 10.698.688c5.003.322 8.794-.477 11.378-2.395 2.581-1.918 3.992-4.738 4.232-8.466.267-4.151-.711-7.26-2.928-9.327-2.219-2.066-5.938-3.268-11.151-3.604l-10.698-.687zm97.545 103.221l5.326-20.768 6.045 1.55 17.965-70.053-6.043-1.55 5.326-20.769 86.481 22.18-9.699 37.816-26.502-6.797 1.55-6.044c1.139-4.441 1.066-7.599-.215-9.471-1.283-1.87-4.402-3.441-9.361-4.714l-13.949-3.577-6.002 23.402 26.348 6.758-5.129 19.993-26.346-6.758-6.837 26.657 13.948 3.577c4.961 1.272 8.45 1.398 10.475.374 2.023-1.021 3.605-3.754 4.746-8.197l2.266-8.834 26.503 6.798-10.415 40.604-86.481-22.177zm175.944 61.289l9.675-19.132 4.427 2.237.762-25.972-7.996-4.043-10.614 20.989 4.284 2.166-9.677 19.133-35.266-17.834 9.674-19.133 5.57 2.815 32.635-64.537-5.568-2.816 9.675-19.133 42.978 21.733c11.994 6.064 19.834 12.897 23.52 20.499 3.688 7.602 2.762 16.878-2.773 27.822-3.369 6.664-7.577 11.439-12.622 14.326-5.048 2.888-10.479 4.175-16.297 3.861l1.272 35.067 5.568 2.817-9.676 19.132-39.551-19.997zm28.888-90.458l-12.706 25.13 9.709 4.909c4.759 2.407 8.726 3.068 11.905 1.986 3.175-1.083 5.728-3.527 7.652-7.335 1.975-3.902 2.537-7.562 1.695-10.977-.846-3.414-3.549-6.277-8.117-8.588l-10.138-5.125zM609.18 327.911l-13.677-41.651 22.752-7.472 1.147 3.497c1.632 4.966 4.083 8.427 7.355 10.384 3.273 1.956 7.008 2.246 11.199.869 8.94-2.936 12.215-8.053 9.818-15.35-1.93-5.876-8.504-9.051-19.727-9.521-7.146-.348-13.203-.995-18.169-1.948-4.966-.951-9.16-2.382-12.577-4.291-3.42-1.908-6.207-4.332-8.362-7.273-2.157-2.939-3.932-6.541-5.329-10.797-3.162-9.627-3.028-18.062.402-25.309 3.43-7.244 10.668-12.682 21.717-16.31a38.585 38.585 0 0 1 10.963-1.915c3.75-.107 6.482.396 8.2 1.518l-1.747-5.32 21.629-7.104 12.928 39.373-21.629 7.102-1.048-3.192c-1.431-4.356-3.614-7.372-6.55-9.048-2.937-1.673-6.604-1.789-11.004-.344-5.057 1.66-8.219 3.4-9.488 5.221-1.27 1.821-1.438 4.15-.507 6.986a10.32 10.32 0 0 0 1.78 3.289c.787.978 2.051 1.826 3.791 2.543 1.74.722 4.129 1.284 7.168 1.689 3.035.407 7.004.646 11.906.721 5.399.024 10.235.373 14.502 1.048 4.269.678 8.041 1.907 11.326 3.691 3.282 1.784 6.09 4.26 8.426 7.421 2.336 3.164 4.303 7.176 5.898 12.041 3.428 10.439 3.412 19.791-.045 28.055-3.458 8.266-10.713 14.211-21.76 17.838-4.494 1.477-8.572 2.252-12.227 2.331-3.656.08-6.377-.542-8.16-1.868l1.848 5.625-22.749 7.471zm104.651-150.808l37.476-4.062 2.31 21.315-5.584.605 2.707 24.974 24.837-2.692-2.706-24.974-5.586.605-2.309-21.315 37.328-4.046 2.311 21.315-5.586.605 7.794 71.898 5.585-.605 2.311 21.314-37.329 4.047-2.312-21.315 5.586-.604-2.967-27.36-24.836 2.692 2.966 27.359 5.585-.605 2.31 21.315-37.476 4.062-2.311-21.314 5.73-.621-7.792-71.898-5.731.621-2.311-21.316zm186.89 109.966l-1.33-.097c-7.4-.534-13.535-1.778-18.404-3.734-4.867-1.955-8.66-4.716-11.376-8.28-2.718-3.564-4.507-7.998-5.362-13.301-.859-5.301-1.025-11.568-.504-18.805l2.672-37.023c.523-7.234 1.587-13.413 3.198-18.538 1.608-5.122 4.015-9.255 7.217-12.393 3.199-3.138 7.351-5.325 12.448-6.562s11.348-1.587 18.748-1.053l1.332.096c7.398.534 13.507 1.777 18.326 3.729 4.817 1.952 8.61 4.713 11.377 8.281 2.768 3.568 4.58 8.005 5.438 13.306.857 5.303 1.025 11.571.504 18.805l-2.672 37.024c-.522 7.235-1.589 13.415-3.197 18.537-1.611 5.125-4.042 9.254-7.293 12.388-3.25 3.134-7.4 5.321-12.448 6.562-5.051 1.239-11.273 1.592-18.674 1.058zm.376-23.715l1.327.096c4.619.333 7.912-.472 9.882-2.415 1.968-1.943 3.198-6.319 3.689-13.128l2.856-39.578c.49-6.807-.1-11.316-1.768-13.521-1.669-2.206-4.813-3.476-9.432-3.809l-1.328-.096c-4.621-.334-7.914.471-9.881 2.414-1.969 1.943-3.199 6.322-3.689 13.129l-2.856 39.577c-.491 6.81.097 11.315 1.767 13.522 1.669 2.206 4.812 3.476 9.433 3.809zm120.067 19.267l6.702 1.833-5.656 20.681-37.643-10.294 5.654-20.681 5.562 1.521 19.075-69.759-5.561-1.521 5.654-20.681 43.205 11.813c12.547 3.432 20.936 8.628 25.162 15.59 4.227 6.961 4.553 16.977.98 30.042-1.801 6.587-3.986 11.96-6.555 16.122-2.57 4.164-5.697 7.291-9.385 9.377-3.688 2.088-7.965 3.158-12.83 3.209-4.869.053-10.533-.807-16.998-2.574l-12.262-3.354-5.104 18.676zm19.075-69.759l-8.313 30.404 6.235 1.705c6.518 1.781 11.176 2.006 13.979.67 2.803-1.332 5.049-5.088 6.736-11.262 1.715-6.274 1.707-10.701-.025-13.277-1.734-2.573-5.858-4.753-12.375-6.535l-6.237-1.705z"/><path fill="#FFF" d="M688.834 1629.581c16.279 16.279 37.523-1.38 37.523-1.38s3.863-2.092 14.762-12.991c10.9-10.899 8.141-23.039 8.555-41.94.414-18.9 29.109-26.074 29.109-26.074 40.836-14.348 60.703-35.869 60.703-35.869s19.865 21.521 60.703 35.869c0 0 28.695 7.174 29.109 26.074.414 18.901-2.346 31.041 8.555 41.94 10.898 10.899 14.76 12.991 14.76 12.991s21.248 17.659 37.527 1.38 20.641-26.425 12.777-38.979c-3.467-5.538-11.656-13.81-15.621-17.219-5.021-4.322-18.768-9.222-29.107-10.131-5.949-.521-18.852-1.166-22.352-4.004a119.671 119.671 0 0 0-5.436-4.143c-5.689-4.085-75.602-43.504-75.463-63.095 0 0 48.008-54.633 105.953-156.172 0 0-109.266 113.128-121.406 132.995-12.141-19.867-121.406-132.995-121.406-132.995 57.945 101.539 105.954 156.172 105.954 156.172.138 19.591-69.772 59.01-75.464 63.095a118.622 118.622 0 0 0-5.434 4.143c-3.502 2.838-16.402 3.482-22.354 4.004-10.34.909-24.084 5.809-29.107 10.131-3.963 3.409-12.152 11.681-15.621 17.219-7.861 12.554-3.5 22.7 12.781 38.979zm268.563-59.208c22.758-.08 40.838 23.796 40.838 32.559s-12.32 27.04-24.281 27.04-34.814-19.863-35.318-30.075c-1.104-22.35 6.8-29.483 18.761-29.524zm-235.82 0c11.963.041 19.867 7.174 18.762 29.523-.504 10.212-23.355 30.075-35.316 30.075-11.963 0-24.281-18.277-24.281-27.04s18.079-32.638 40.835-32.558zm991.903-769.824l-45.525-97.097-541.608-.849V586.635c0-16.922 4.438-30.624 13.313-41.109 8.875-10.483 21.391-15.734 37.547-15.734 9.688 0 19.375 3.031 29.063 9.078s17.359 13.094 23.016 21.156c7.266-12.891 10.906-28.609 10.906-47.172 0-16.125-3.438-30.031-10.297-41.75-6.875-11.703-15.547-21.188-26.047-28.453s-22.203-12.516-35.109-15.75c-12.922-3.22-25.438-4.845-37.547-4.845-29.031 0-53.203 6.063-72.547 18.173s-33.031 27.453-41.094 46.016c-23.422-30.781-53.094-51.641-89.031-62.578s-72.484-16.406-109.625-16.406c-37.953 0-74.5 3.844-109.625 11.517-35.125 7.671-66.625 20.593-94.484 38.766-27.859 18.171-50.063 42-66.609 71.469-16.563 29.483-24.828 66.03-24.828 109.624 0 23.32 3.295 44.839 9.881 64.558l-484.916-.76L3 807.617l45.527 97.097 506.193.793c-3.619 11.079-5.946 23.779-6.969 38.112-1.609 22.563-2.406 41.891-2.406 58 0 36.25-3.234 65.266-9.688 87.016-6.469 21.75-20.188 32.625-41.172 32.625-13.719 0-24.422-3.828-32.094-11.5-7.672-7.656-13.922-14.719-18.766-21.188-3.234 9.688-4.844 20.984-4.844 33.891 0 22.563 4.438 41.094 13.313 55.594s20.797 26.188 35.734 35.047 31.875 15.094 50.844 18.719 38.125 5.438 57.484 5.438c58.078 0 100.625-11.469 127.656-34.422 27.016-22.953 40.531-61.016 40.531-114.188V972.666c0-29 5.859-51.141 17.594-66.453 11.734-15.297 30.953-22.953 57.656-22.953 41.133 0 55.9 33.514 65.129 46.914 16.635 24.158 47.746 56.945 95.951 56.945 6.852 0 13.74 1.184 20.832.467 47.828-3.4 87.393-37.292 100.078-82.708l546.583.856 45.314-105.185zM24.927 807.27l36.537-84.817 479.886.752c5.859 12.169 13.145 23.562 21.871 34.165 26.594 32.313 65.266 51.688 116.031 58.141v7.25c-21.719 1.625-43.438 7.063-65.156 16.328-20.928 8.928-37.723 24.419-50.424 46.433l-502.424-.787-36.321-77.465zm881.419-44.995c-12.172 15.328-30.828 22.984-55.984 22.984-21.094 0-38.344-3.828-51.734-11.484s-23.734-18.156-31.031-31.469c-7.313-13.313-12.172-28.438-14.609-45.375s-3.641-34.688-3.641-53.25c0-15.313 2.016-30.438 6.078-45.375 4.063-14.922 10.141-28.03 18.266-39.328 8.109-11.281 18.453-20.563 31.031-27.828 12.563-7.25 27.375-10.891 44.422-10.891 17.031 0 30.828 6.266 41.375 18.766s15.828 28.438 15.828 47.781v175.469zm218.963 122.608c.289-2.996.473-6.024.529-9.084.335-.814.508-1.258.508-1.258V722.604l528.888.829 36.321 77.464-36.537 84.816-529.709-.83z"/><path d="M96.605 835.629v-12.06h3.51v-40.931h-3.51v-11.81h24.93l9.181 32.49h.899l9.181-32.49h24.93v11.81h-3.51v40.931h3.51v12.06h-22.95v-12.06h4.05v-30.78h-.449l-10.53 32.13h-9.36l-10.529-32.13h-.45v30.78h4.05v12.06H96.605zm106.471 1.35h-.813c-4.516 0-8.297-.449-11.338-1.35s-5.467-2.295-7.271-4.185c-1.807-1.891-3.087-4.305-3.839-7.245-.755-2.939-1.13-6.449-1.13-10.53v-20.88c0-4.08.375-7.59 1.13-10.53.752-2.938 2.032-5.354 3.839-7.245 1.805-1.89 4.23-3.285 7.271-4.185 3.041-.9 6.822-1.351 11.338-1.351h.813c4.518 0 8.28.45 11.292 1.351 3.012.899 5.436 2.295 7.273 4.185 1.835 1.891 3.131 4.307 3.884 7.245.753 2.94 1.13 6.45 1.13 10.53v20.88c0 4.081-.377 7.591-1.13 10.53-.753 2.94-2.049 5.354-3.884 7.245-1.838 1.89-4.262 3.284-7.273 4.185s-6.775 1.35-11.292 1.35zm-.812-13.32h.811c2.819 0 4.784-.585 5.895-1.755 1.109-1.17 1.664-3.675 1.664-7.516v-22.319c0-3.84-.555-6.346-1.664-7.516-1.11-1.17-3.075-1.755-5.895-1.755h-.811c-2.82 0-4.785.585-5.895 1.755-1.111 1.17-1.666 3.676-1.666 7.516v22.319c0 3.841.555 6.346 1.666 7.516 1.11 1.17 3.075 1.755 5.895 1.755zm38.789 13.32V812.32h14.58v2.069c0 2.94.762 5.221 2.283 6.84 1.521 1.62 3.627 2.431 6.313 2.431 5.729 0 8.595-2.16 8.595-6.48 0-3.479-3.2-6.329-9.602-8.55-4.068-1.44-7.449-2.849-10.142-4.23-2.689-1.379-4.846-2.88-6.459-4.5-1.616-1.619-2.768-3.404-3.455-5.354-.689-1.949-1.033-4.185-1.033-6.705 0-5.699 1.68-10.184 5.041-13.455 3.359-3.27 8.578-4.905 15.658-4.905 2.281 0 4.516.302 6.706.9 2.188.601 3.675 1.35 4.454 2.25v-3.15h13.861v23.311h-13.861v-1.891c0-2.578-.689-4.574-2.068-5.984-1.381-1.409-3.48-2.115-6.301-2.115-3.239 0-5.398.376-6.48 1.125-1.08.751-1.619 1.966-1.619 3.646 0 .72.135 1.41.405 2.069.27.661.839 1.336 1.71 2.025.869.69 2.145 1.41 3.825 2.16 1.679.751 3.929 1.574 6.749 2.475 3.119.961 5.85 1.995 8.189 3.105 2.341 1.11 4.291 2.43 5.85 3.96 1.561 1.529 2.716 3.345 3.467 5.444.749 2.102 1.125 4.59 1.125 7.471 0 6.18-1.785 11.175-5.355 14.984-3.57 3.812-8.896 5.715-15.975 5.715-2.881 0-5.386-.301-7.516-.899-2.131-.6-3.586-1.409-4.365-2.431v3.33h-14.58zm91.8-24.93h15.301v14.76c-2.22 3.182-5.445 5.67-9.676 7.471a33.339 33.339 0 0 1-13.185 2.699c-4.5 0-8.272-.436-11.317-1.305-3.046-.869-5.504-2.25-7.374-4.14-1.871-1.891-3.199-4.305-3.983-7.245-.784-2.939-1.175-6.48-1.175-10.62v-20.88c0-8.28 1.703-14.234 5.112-17.865 3.409-3.63 8.666-5.445 15.768-5.445 1.62 0 3.478.286 5.579.855 2.101.571 3.75 1.275 4.95 2.115l.181-2.971h15.12v24.12h-15.301v-3.239c0-2.46-.601-4.335-1.8-5.625-1.2-1.29-3.211-1.936-6.029-1.936-5.041 0-7.561 2.671-7.561 8.01v23.58c0 3.841.555 6.331 1.665 7.471 1.109 1.14 3.074 1.71 5.896 1.71 3.119 0 5.203-.51 6.255-1.53 1.049-1.02 1.574-3.15 1.574-6.391v-3.599zm52.381 24.93h-.813c-4.516 0-8.296-.449-11.338-1.35-3.041-.9-5.467-2.295-7.271-4.185-1.807-1.891-3.086-4.305-3.839-7.245-.755-2.939-1.13-6.449-1.13-10.53v-20.88c0-4.08.375-7.59 1.13-10.53.753-2.938 2.032-5.354 3.839-7.245 1.805-1.89 4.23-3.285 7.271-4.185 3.042-.9 6.822-1.351 11.338-1.351h.813c4.518 0 8.28.45 11.292 1.351 3.012.899 5.436 2.295 7.271 4.185 1.836 1.891 3.133 4.307 3.887 7.245.752 2.94 1.129 6.45 1.129 10.53v20.88c0 4.081-.377 7.591-1.129 10.53-.754 2.94-2.051 5.354-3.887 7.245-1.836 1.89-4.26 3.284-7.271 4.185s-6.775 1.35-11.292 1.35zm-.812-13.32h.811c2.819 0 4.785-.585 5.895-1.755s1.665-3.675 1.665-7.516v-22.319c0-3.84-.556-6.346-1.665-7.516s-3.075-1.755-5.895-1.755h-.811c-2.82 0-4.785.585-5.895 1.755-1.111 1.17-1.665 3.676-1.665 7.516v22.319c0 3.841.554 6.346 1.665 7.516 1.11 1.17 3.075 1.755 5.895 1.755zm56.52-52.83v12.06h-3.87l5.13 35.46h.36l8.819-36.899h12.512l8.729 36.899h.448l5.041-35.46h-3.87v-12.06h22.95v12.06h-2.881l-6.57 40.681h2.521v12.06h-26.01l-6.391-30.06h-.54l-6.3 30.06h-26.1v-12.06h2.52l-6.569-40.681h-2.881v-12.06h22.952zm842.049 21.96v-13.68c1.08-1.56 2.534-2.939 4.365-4.141a29.822 29.822 0 0 1 6.029-3.015 39.989 39.989 0 0 1 6.751-1.845c2.308-.42 4.514-.631 6.614-.631 7.799 0 13.635 1.381 17.506 4.141 3.869 2.76 5.805 7.23 5.805 13.41 0 2.34-.256 4.364-.766 6.074s-1.26 3.24-2.25 4.591c-.989 1.35-2.175 2.609-3.555 3.779a78.612 78.612 0 0 1-4.68 3.646l-15.12 10.89c-2.16 1.62-3.496 2.79-4.005 3.51-.512.721-.766 1.62-.766 2.7v1.351h9.721c2.279 0 3.779-.284 4.5-.855.719-.569 1.08-1.874 1.08-3.915v-4.77h15.84v21.6h-47.07v-11.34c0-3.479.614-6.84 1.845-10.08 1.229-3.24 3.164-5.79 5.806-7.65l17.55-12.689c2.519-1.859 4.154-3.27 4.905-4.23.749-.959 1.125-2.01 1.125-3.149 0-1.38-.721-2.354-2.16-2.926-1.441-.569-3.181-.854-5.22-.854-5.282 0-7.921 1.921-7.921 5.76v4.32h-15.929zm106.469 20.88c0 4.081-.391 7.575-1.173 10.485-.781 2.91-2.074 5.325-3.877 7.244-1.804 1.922-4.18 3.33-7.124 4.23-2.946.9-6.613 1.35-11.001 1.35-4.51 0-8.266-.449-11.272-1.35s-5.38-2.309-7.124-4.23c-1.744-1.919-2.977-4.334-3.697-7.244-.723-2.91-1.081-6.404-1.081-10.485v-20.97c0-4.08.358-7.574 1.081-10.485.721-2.909 1.969-5.31 3.742-7.2 1.773-1.89 4.148-3.285 7.125-4.185 2.975-.9 6.717-1.351 11.227-1.351 4.508 0 8.25.45 11.227 1.351 2.975.899 5.351 2.295 7.124 4.185 1.772 1.891 3.021 4.307 3.741 7.245.723 2.94 1.083 6.421 1.083 10.44v20.97zm-23.174 9.99c2.742 0 4.621-.689 5.635-2.07 1.014-1.38 1.52-3.51 1.52-6.39v-24.03c0-2.88-.506-4.995-1.52-6.345-1.014-1.351-2.893-2.025-5.635-2.025-2.803 0-4.695.69-5.68 2.07-.984 1.381-1.477 3.48-1.477 6.3v24.03c0 2.88.492 5.01 1.477 6.39.984 1.381 2.877 2.07 5.68 2.07zm48.374-52.83h19.44v52.74h6.93v12.06h-30.15v-12.06h7.2v-37.261c0-1.439-.22-2.369-.659-2.79-.438-.419-1.357-.63-2.761-.63v-12.059zm93.059 18.359h-14.76c0-4.259-2.416-6.39-7.246-6.39-3.339 0-5.396.735-6.171 2.205-.776 1.471-1.163 3.855-1.163 7.155v4.859c3.469-2.219 7.389-3.33 11.756-3.33 6.998 0 11.92 1.741 14.762 5.221 2.841 3.48 4.263 8.729 4.263 15.75 0 7.98-1.801 13.695-5.401 17.145-3.599 3.451-9.719 5.175-18.359 5.175-8.041 0-13.891-1.499-17.549-4.5-3.661-2.999-5.491-7.799-5.491-14.399v-29.25c0-6.72 1.83-11.624 5.491-14.715 3.658-3.09 9.328-4.636 17.009-4.636 3 0 5.64.105 7.92.315 2.28.211 4.333.616 6.165 1.215 1.83.601 3.45 1.41 4.86 2.43 1.409 1.021 2.714 2.371 3.915 4.051v11.699zm-22.272 34.471c2.624 0 4.592-.734 5.903-2.205 1.313-1.47 1.969-3.524 1.969-6.165 0-5.699-2.624-8.55-7.872-8.55-2.624 0-4.46.615-5.503 1.845-1.043 1.23-1.564 3.256-1.564 6.075 0 2.94.49 5.175 1.475 6.705.983 1.53 2.847 2.295 5.592 2.295z" fill="#FFF"/><circle fill="#4DB748" cx="1015.274" cy="1124.26" r="113"/></svg>