<svg xmlns="http://www.w3.org/2000/svg" width="30" height="30" viewBox="0 0 40 40"><path fill="#49B848" d="M20 0C8.955 0 0 8.954 0 20c0 11.047 8.955 20 20 20 11.047 0 20-8.953 20-20C40 8.954 31.047 0 20 0z"/><path fill="#FFF" d="M13.064 7.424c1.487-.281 2.462 1.396 3.203 2.553.722 1.124 1.61 2.442 1.252 3.904-.199.82-.941 1.269-1.502 1.752-.554.479-1.396.917-1.601 1.651-.333 1.192.396 2.442.849 3.154a18.084 18.084 0 0 0 3.855 4.354c.768.629 1.834 1.467 2.902 1.252 1.596-.322 2.017-2.291 3.754-2.553 1.653-.251 2.772.947 3.706 1.752.899.776 2.352 1.773 2.253 3.104-.059.766-.672 1.239-1.205 1.701-.54.474-1.014 1.004-1.55 1.352-1.294.846-2.883 1.26-4.707 1.202-1.786-.056-3.211-.662-4.504-1.351-2.527-1.349-4.524-3.244-6.405-5.358-1.851-2.077-3.56-4.536-4.505-7.255-1.179-3.396-.556-6.884 1.353-9.06.322-.37.833-.755 1.3-1.152.467-.398.898-.879 1.552-1.002z"/></svg>