<svg width="44" height="44" viewBox="0 0 44 44" fill="none" xmlns="http://www.w3.org/2000/svg">
<path d="M22 43C33.598 43 43 33.598 43 22C43 10.402 33.598 1 22 1C10.402 1 1 10.402 1 22C1 33.598 10.402 43 22 43Z" stroke="#FF0000" stroke-width="2" stroke-miterlimit="10" stroke-linecap="round" stroke-linejoin="round"/>
<path d="M9.60011 14C8.70011 15.3 9.30011 17 10.2001 17.4C11.5001 18.1 12.2001 17.1 13.3001 18.7C12.8001 19.7 12.7001 20.5 12.7001 21.6C11.3001 21.7 9.80011 21.4 9.20011 21.5C7.90011 21.8 7.00011 22.9 7.30011 24.4C7.60011 25.9 9.20011 26.7 10.2001 26.4C11.6001 25.9 11.4001 24.8 13.3001 25.1C13.8001 26.3 14.5001 27.4 15.3001 28.3C14.4001 29.3 13.2001 29.9 12.8001 30.4C12.0001 31.5 12.2001 32.9 13.4001 33.8C14.7001 34.7 16.3001 34.2 16.8001 33.2C17.5001 31.9 16.6001 31.2 18.1001 30.2C19.2001 30.7 20.4001 30.9 21.6001 30.9C21.7001 32.2 21.2001 33.4 21.4001 34.1C21.6001 35.4 22.7001 36.3 24.3001 36.1C25.8001 35.8 26.6001 34.3 26.3001 33.3C25.9001 32 24.8001 32 25.1001 30.3C25.3001 30.2 25.6001 30.1 25.8001 30" stroke="#4DB748" stroke-width="2" stroke-miterlimit="10" stroke-linecap="round" stroke-linejoin="round"/>
<path d="M33.9 29.9C34.8 29 33.8 27.4 33 27C31.7 26.4 31.3 26.3 30 25.9C30.5 24.8 30.8 23.6 30.8 22.3C32.1 22.1 33.4 22.6 34.1 22.5C35.4 22.2 36.3 21.1 36 19.6C35.7 18.1 34.1 17.3 33.1 17.6C31.8 18 31.9 19.1 30.1 18.9C29.6 17.6 28.9 16.5 27.9 15.6C28.7 14.6 29.9 14.1 30.3 13.5C31.1 12.4 30.9 11 29.7 10.1C28.4 9.20004 26.8 9.70004 26.3 10.7C25.7 11.8 26.2 12.8 25.1 13.8C24 13.3 22.8 13.1 21.5 13.1C21.4 11.8 21.9 10.5 21.7 9.80004C21.5 8.50004 20.4 7.60004 18.8 7.80004C17.3 8.10004 16.5 9.60004 16.8 10.6C17.2 11.9 18.2 12.2 18.2 13.7C18 13.8 17.8 13.9 17.6 14" stroke="#4DB748" stroke-width="2" stroke-miterlimit="10" stroke-linecap="round" stroke-linejoin="round"/>
<path d="M23.7999 17.3999C23.6999 17.8999 23.9999 18.4999 24.4999 18.9999C24.9999 19.4999 25.6999 19.6999 26.0999 19.6999" stroke="#4DB748" stroke-width="2" stroke-miterlimit="10" stroke-linecap="round" stroke-linejoin="round"/>
<path d="M22.4 26.7001C22.2 26.3001 21.8 26.0001 21.3 25.8001C20.3 25.4001 19.3 25.6001 19 26.4001" stroke="#4DB748" stroke-width="2" stroke-miterlimit="10" stroke-linecap="round" stroke-linejoin="round"/>
<path d="M17.1 23.4C17.5 22.1999 17.1 21 16.2 20.7" stroke="#4DB748" stroke-width="2" stroke-miterlimit="10" stroke-linecap="round" stroke-linejoin="round"/>
<path d="M7.1001 7.19995L36.8001 36.9" stroke="#FF0000" stroke-width="2" stroke-miterlimit="10" stroke-linecap="round" stroke-linejoin="round"/>
</svg>
